<?xml version="1.0" encoding="UTF-8" standalone="no"?>
<!DOCTYPE svg PUBLIC "-//W3C//DTD SVG 1.1//EN" "http://www.w3.org/Graphics/SVG/1.1/DTD/svg11.dtd">
<svg width="100%" height="100%" viewBox="0 0 1626 374" version="1.1" xmlns="http://www.w3.org/2000/svg" xmlns:xlink="http://www.w3.org/1999/xlink" xml:space="preserve" xmlns:serif="http://www.serif.com/" style="fill-rule:evenodd;clip-rule:evenodd;stroke-linejoin:round;stroke-miterlimit:2;">
    <g id="Artboard1" transform="matrix(0.992629,0,0,1,-402.656,-426.151)">
        <rect x="405.646" y="426.151" width="1637.53" height="373.331" style="fill:none;"/>
        <clipPath id="_clip1">
            <rect x="405.646" y="426.151" width="1637.53" height="373.331"/>
        </clipPath>
        <g clip-path="url(#_clip1)">
            <g transform="matrix(0.100743,0,0,-0.1,9.18833,1348.15)">
                <g>
                    <g transform="matrix(1,-1.88879e-17,-1.88879e-17,0.845769,1225.83,1045.33)">
                        <path d="M4575,9663C4503,9659 4341,9640 4300,9630C4281,9626 4240,9616 4210,9610C4159,9599 4032,9560 3985,9541C3912,9512 3682,9393 3670,9379C3667,9376 3655,9368 3643,9361C3565,9320 3406,9180 3265,9026C3166,8920 3020,8679 2959,8525C2940,8475 2902,8361 2892,8325C2886,8303 2876,8266 2870,8242C2864,8218 2852,8160 2845,8112C2826,7999 2826,7628 2844,7550L2857,7495L3535,7490L4214,7485L4222,7455C4242,7388 4214,7174 4159,6955C4153,6933 4144,6897 4138,6875C4133,6853 4122,6817 4115,6795C4108,6773 4097,6735 4090,6710C4072,6646 4029,6509 4020,6485C4016,6474 4005,6443 3997,6415C3967,6321 3901,6139 3833,5965C3782,5835 3784,5838 3766,5798C3757,5778 3750,5759 3750,5756C3750,5753 3741,5730 3730,5705C3719,5680 3701,5639 3690,5614C3678,5589 3656,5536 3641,5497C3625,5457 3595,5390 3575,5347C3555,5305 3542,5265 3545,5260C3552,5249 5716,5245 5744,5256C5756,5261 5750,5277 5713,5338C5668,5413 5604,5535 5589,5575C5570,5622 5530,5756 5530,5769C5530,5777 5526,5797 5521,5814C5498,5887 5457,6144 5440,6315C5403,6679 5390,6913 5390,7207L5390,7490L5898,7492L6405,7495L6418,7545C6437,7618 6444,7896 6431,8020C6410,8214 6371,8388 6329,8472C6324,8482 6320,8494 6320,8500C6320,8506 6304,8545 6285,8586C6266,8627 6250,8662 6250,8665C6250,8671 6128,8874 6121,8880C6117,8883 6097,8910 6075,8940C5951,9112 5742,9300 5545,9415C5481,9453 5323,9530 5310,9530C5304,9530 5292,9534 5282,9540C5256,9554 5123,9596 5060,9610C5030,9616 4989,9626 4970,9630C4890,9650 4673,9667 4575,9663ZM4869,9425C4960,9410 4982,9405 5083,9379C5188,9351 5411,9258 5418,9238C5420,9234 5426,9230 5432,9230C5444,9230 5590,9135 5640,9094C5764,8994 5941,8790 6012,8665C6161,8404 6236,8122 6228,7859C6225,7759 6221,7727 6210,7720C6201,7714 5575,7711 4625,7713L3055,7715L3057,7889C3059,8049 3072,8154 3100,8240C3104,8254 3113,8285 3120,8310C3140,8382 3150,8409 3206,8525C3270,8659 3278,8672 3362,8785C3475,8938 3599,9058 3750,9160C3895,9257 4064,9339 4190,9372C4209,9377 4243,9386 4265,9392C4438,9438 4697,9452 4869,9425ZM5163,7153C5176,6422 5242,5868 5354,5550C5363,5525 5370,5499 5370,5493C5370,5483 5216,5480 4631,5480C4224,5480 3889,5483 3887,5488C3883,5494 3960,5690 4001,5780C4007,5794 4016,5814 4020,5825C4031,5854 4081,5982 4090,6005C4155,6165 4271,6506 4320,6680C4347,6774 4378,6901 4389,6955C4396,6988 4405,7035 4410,7060C4429,7153 4442,7317 4438,7402L4433,7490L5157,7490L5163,7153Z" style="fill-rule:nonzero;"/>
                    </g>
                    <g transform="matrix(1,0,0,1,1418.68,-320.238)">
                        <path d="M4850,9194C4724,9149 4641,9034 4632,8895C4629,8836 4632,8814 4653,8762C4687,8679 4709,8650 4773,8606C4848,8554 4943,8533 5019,8550C5152,8579 5252,8671 5288,8796C5331,8944 5253,9113 5110,9182C5050,9211 4914,9217 4850,9194ZM5031,8967C5062,8946 5065,8939 5067,8890C5069,8849 5065,8830 5052,8814C4981,8730 4861,8772 4860,8881C4860,8916 4865,8931 4883,8947C4937,8996 4979,9002 5031,8967Z" style="fill-rule:nonzero;"/>
                    </g>
                    <g transform="matrix(1,0,0,1,359.255,-652.17)">
                        <path d="M4850,9194C4724,9149 4641,9034 4632,8895C4629,8836 4632,8814 4653,8762C4687,8679 4709,8650 4773,8606C4848,8554 4943,8533 5019,8550C5152,8579 5252,8671 5288,8796C5331,8944 5253,9113 5110,9182C5050,9211 4914,9217 4850,9194ZM5031,8967C5062,8946 5065,8939 5067,8890C5069,8849 5065,8830 5052,8814C4981,8730 4861,8772 4860,8881C4860,8916 4865,8931 4883,8947C4937,8996 4979,9002 5031,8967Z" style="fill-rule:nonzero;"/>
                    </g>
                    <g transform="matrix(1,0,0,1,-1.13687e-12,-372.248)">
                        <g transform="matrix(1,0,0,1,0,-175.186)">
                            <path d="M19572,9163L19409,9108L19412,8581C19416,8077 19417,8052 19438,7977C19521,7680 19784,7455 20085,7424L20150,7417L20150,7588C20150,7781 20159,7760 20069,7775C19964,7791 19842,7890 19792,7998C19767,8053 19766,8063 19762,8263L19758,8470L20150,8470L20150,8790L19760,8790L19760,9005C19760,9171 19757,9220 19748,9219C19741,9219 19662,9194 19572,9163Z" style="fill-rule:nonzero;"/>
                            <path d="M8525,8806C8302,8754 8134,8620 8040,8417C7995,8321 7979,8247 7979,8130C7979,7855 8125,7622 8371,7505C8539,7426 8761,7420 8927,7491C8951,7501 8970,7507 8970,7504C8970,7483 8934,7423 8899,7385C8794,7272 8626,7246 8497,7324L8441,7358L8187,7098L8216,7074C8344,6968 8472,6918 8632,6912C8765,6907 8860,6926 8968,6980C9106,7049 9212,7156 9281,7295C9344,7423 9350,7467 9350,7866C9350,8184 9348,8224 9330,8296C9298,8425 9248,8513 9150,8611C9056,8706 8994,8746 8875,8785C8777,8819 8619,8828 8525,8806ZM8807,8415C8835,8401 8879,8367 8904,8339C9042,8186 8994,7942 8805,7842C8762,7819 8743,7815 8665,7815C8590,7815 8567,7819 8528,7839C8336,7937 8285,8184 8425,8339C8524,8448 8677,8478 8807,8415Z" style="fill-rule:nonzero;"/>
                            <path d="M9540,8820L9540,7430L9910,7430L9910,7830C9910,8285 9908,8271 9995,8348C10069,8413 10168,8427 10255,8386C10314,8358 10362,8310 10387,8255C10403,8219 10405,8175 10408,7823L10411,7430L10782,7430L10777,7843C10772,8294 10770,8310 10708,8434C10565,8720 10215,8855 9928,8735C9914,8729 9911,8735 9908,8772L9905,8815L9723,8818L9540,8820Z" style="fill-rule:nonzero;"/>
                            <path d="M11475,8811C11149,8744 10928,8512 10889,8196C10832,7734 11237,7354 11705,7429C12032,7482 12280,7777 12280,8115C12280,8308 12216,8464 12080,8601C11942,8740 11793,8809 11610,8815C11558,8817 11497,8815 11475,8811ZM11721,8418C11784,8389 11852,8323 11880,8265C11978,8062 11857,7826 11636,7792C11486,7768 11345,7843 11282,7978C11259,8026 11255,8048 11255,8120C11256,8210 11271,8253 11326,8327C11410,8439 11588,8480 11721,8418Z" style="fill-rule:nonzero;"/>
                            <path d="M12420,8820L12420,7430L12790,7430L12790,7845C12790,8300 12790,8298 12850,8358C12901,8409 12937,8424 13010,8424C13081,8424 13117,8410 13164,8363C13229,8299 13230,8298 13230,7843L13230,7430L13600,7430L13600,7831C13600,8103 13604,8245 13611,8271C13637,8355 13737,8430 13825,8430C13880,8430 13962,8390 13995,8346C14048,8276 14049,8267 14050,7833L14050,7430L14422,7430L14418,7863C14413,8343 14412,8351 14343,8484C14273,8618 14126,8734 13974,8775C13878,8801 13740,8797 13644,8765C13561,8737 13520,8716 13456,8666C13430,8646 13414,8640 13406,8646C13268,8751 13153,8793 13006,8792C12934,8791 12889,8786 12848,8772L12791,8753L12785,8815L12603,8818L12420,8820Z" style="fill-rule:nonzero;"/>
                            <path d="M15095,8805C14755,8730 14530,8460 14529,8124C14529,7924 14590,7767 14723,7631C14993,7355 15441,7349 15709,7619C15795,7706 15840,7776 15884,7893C15911,7969 15914,7985 15914,8110C15915,8261 15904,8312 15842,8438C15715,8700 15376,8867 15095,8805ZM15363,8420C15429,8389 15496,8320 15528,8252C15563,8177 15565,8060 15532,7988C15456,7819 15257,7739 15091,7811C14931,7880 14849,8071 14909,8231C14945,8326 15027,8405 15123,8436C15185,8456 15304,8448 15363,8420Z" style="fill-rule:nonzero;"/>
                            <path d="M16600,8810L16600,7440L16960,7440L16960,7830C16960,8252 16960,8252 17015,8325C17054,8375 17141,8415 17210,8414C17240,8414 17282,8407 17304,8400C17357,8383 17419,8325 17446,8265C17470,8215 17470,8212 17470,7828L17470,7440L17831,7440L17828,7853C17824,8251 17824,8267 17801,8335C17734,8542 17563,8702 17355,8755C17278,8775 17140,8774 17070,8754C16960,8722 16960,8722 16960,8769L16960,8810L16600,8810Z" style="fill-rule:nonzero;"/>
                            <path d="M18432,8780C18119,8698 17894,8394 17913,8080C17929,7835 18069,7623 18291,7510C18397,7456 18476,7437 18595,7436C18710,7435 18776,7449 18875,7495C18939,7524 19061,7607 19076,7631C19079,7637 19029,7692 18964,7754L18845,7867L18800,7834C18667,7739 18467,7755 18353,7870C18329,7893 18310,7921 18310,7931C18310,7949 18327,7950 18795,7950L19280,7950L19280,8063C19280,8196 19268,8270 19233,8360C19106,8681 18756,8865 18432,8780ZM18713,8440C18761,8425 18791,8408 18829,8372C18918,8288 18922,8290 18595,8290C18395,8290 18310,8293 18310,8301C18310,8321 18348,8366 18390,8395C18483,8460 18597,8476 18713,8440Z" style="fill-rule:nonzero;"/>
                            <path d="M16157,7776C16092,7752 16060,7710 16060,7645C16060,7518 16216,7457 16305,7550C16343,7590 16351,7669 16321,7717C16284,7776 16221,7799 16157,7776Z" style="fill-rule:nonzero;"/>
                        </g>
                        <g transform="matrix(64.9458,0,0,-64.9458,-55975.7,65820.2)">
                            <g transform="matrix(12,0,0,12,1172.81,921.143)">
                            </g>
                            <text x="983.737px" y="921.143px" style="font-family:'Inter-Light', 'Inter';font-weight:300;font-size:12px;">hidden wisdom, ob<tspan x="1089.73px " y="921.143px ">v</tspan>ious solutions</text>
                        </g>
                    </g>
                </g>
            </g>
        </g>
    </g>
</svg>
